<svg width="53" height="53" viewBox="0 0 53 53" fill="none" xmlns="http://www.w3.org/2000/svg">
<path d="M23.2124 16.1973C20.5836 18.1903 18.0963 20.3632 15.7681 22.7004C4.79842 33.6701 -0.755869 45.8934 3.35584 50.009C7.46756 54.1207 19.6947 48.5626 30.6606 37.5967C32.9979 35.2673 35.1708 32.7786 37.1637 30.1486" stroke="#108A00" stroke-width="3" stroke-linecap="round" stroke-linejoin="round"/>
<path d="M37.1638 30.1504C43.6323 38.7364 46.2667 46.8132 43.073 50.007C38.9574 54.1225 26.7341 48.5644 15.7644 37.5985C4.80241 26.625 -0.751877 14.4055 3.35984 10.29C6.55355 7.10009 14.6304 9.73452 23.2164 16.1991" stroke="#108A00" stroke-width="3" stroke-linecap="round" stroke-linejoin="round"/>
<path d="M21.2832 30.1494C21.2832 30.6609 21.4864 31.1515 21.8481 31.5131C22.2097 31.8748 22.7003 32.078 23.2118 32.078C23.7233 32.078 24.2138 31.8748 24.5755 31.5131C24.9372 31.1515 25.1403 30.6609 25.1403 30.1494C25.1403 29.6379 24.9372 29.1474 24.5755 28.7857C24.2138 28.424 23.7233 28.2209 23.2118 28.2209C22.7003 28.2209 22.2097 28.424 21.8481 28.7857C21.4864 29.1474 21.2832 29.6379 21.2832 30.1494ZM30.9646 13.3554C29.7496 13.1433 29.7496 11.4037 30.9646 11.1954C33.1111 10.8236 35.098 9.82021 36.6714 8.31348C38.2448 6.80675 39.3332 4.86512 39.7975 2.73671L39.8669 2.40114C40.1292 1.20543 41.8341 1.19771 42.1041 2.38957L42.1966 2.77914C42.6808 4.89701 43.7795 6.82478 45.355 8.32066C46.9304 9.81654 48.9125 10.8139 51.0526 11.1877C52.2715 11.3999 52.2715 13.151 51.0526 13.3593C48.9125 13.7331 46.9304 14.7305 45.355 16.2263C43.7795 17.7222 42.6808 19.65 42.1966 21.7679L42.1041 22.1574C41.8341 23.3531 40.1292 23.3454 39.8669 22.1497L39.7898 21.8141C39.3254 19.6857 38.2371 17.7441 36.6637 16.2374C35.0903 14.7306 33.1034 13.7273 30.9569 13.3554H30.9646Z" stroke="#108A00" stroke-width="3" stroke-linecap="round" stroke-linejoin="round"/>
</svg>
